<svg width="1280" height="720" xmlns="http://www.w3.org/2000/svg">
  <!-- Background -->
  <rect width="1280" height="720" fill="#f8f9fa"/>
  
  <!-- Title -->
  <text x="640" y="80" font-family="Arial" font-size="40" font-weight="bold" text-anchor="middle" fill="#1864ab">Performance Benchmark</text>
  
  <!-- Subtitle -->
  <text x="640" y="130" font-family="Arial" font-size="24" text-anchor="middle" fill="#495057">Cache hits are up to 200x faster than direct API calls</text>
  
  <!-- Performance graph -->
  <rect x="200" y="180" width="880" height="300" fill="#e9ecef" stroke="#dee2e6" stroke-width="2"/>
  
  <!-- Y-axis -->
  <line x1="200" y1="180" x2="200" y2="480" stroke="#adb5bd" stroke-width="2"/>
  <text x="180" y="190" font-family="Arial" font-size="14" text-anchor="end" fill="#495057">0ms</text>
  <text x="180" y="290" font-family="Arial" font-size="14" text-anchor="end" fill="#495057">50ms</text>
  <text x="180" y="390" font-family="Arial" font-size="14" text-anchor="end" fill="#495057">100ms</text>
  <text x="180" y="480" font-family="Arial" font-size="14" text-anchor="end" fill="#495057">150ms</text>
  
  <!-- X-axis -->
  <line x1="200" y1="480" x2="1080" y2="480" stroke="#adb5bd" stroke-width="2"/>
  
  <!-- Bars -->
  <!-- Direct axios -->
  <rect x="300" y="280" width="100" height="200" fill="#adb5bd"/>
  <text x="350" y="500" font-family="Arial" font-size="14" text-anchor="middle" fill="#495057">Direct axios</text>
  <text x="350" y="520" font-family="Arial" font-size="14" text-anchor="middle" fill="#495057">100ms</text>
  
  <!-- First request -->
  <rect x="500" y="279" width="100" height="201" fill="#adb5bd"/>
  <text x="550" y="500" font-family="Arial" font-size="14" text-anchor="middle" fill="#495057">First request</text>
  <text x="550" y="520" font-family="Arial" font-size="14" text-anchor="middle" fill="#495057">100.5ms</text>
  
  <!-- Cache hit -->
  <rect x="700" y="479" width="100" height="1" fill="#4dabf7"/>
  <text x="750" y="500" font-family="Arial" font-size="14" text-anchor="middle" fill="#1971c2">Cache hit</text>
  <text x="750" y="520" font-family="Arial" font-size="14" text-anchor="middle" fill="#1971c2">0.5ms</text>
  
  <!-- SWR -->
  <rect x="900" y="478.8" width="100" height="1.2" fill="#4dabf7"/>
  <text x="950" y="500" font-family="Arial" font-size="14" text-anchor="middle" fill="#1971c2">SWR</text>
  <text x="950" y="520" font-family="Arial" font-size="14" text-anchor="middle" fill="#1971c2">0.6ms</text>
  
  <!-- Benchmark table -->
  <rect x="340" y="550" width="600" height="30" fill="#1971c2"/>
  <text x="640" y="570" font-family="Arial" font-size="16" font-weight="bold" text-anchor="middle" fill="white">Benchmark Results</text>
  
  <rect x="340" y="580" width="300" height="30" fill="#e7f5ff"/>
  <text x="490" y="600" font-family="Arial" font-size="14" text-anchor="middle" fill="#1971c2">Operation</text>
  
  <rect x="640" y="580" width="300" height="30" fill="#e7f5ff"/>
  <text x="790" y="600" font-family="Arial" font-size="14" text-anchor="middle" fill="#1971c2">Average Time</text>
  
  <rect x="340" y="610" width="300" height="30" fill="#f8f9fa"/>
  <text x="490" y="630" font-family="Arial" font-size="14" text-anchor="middle" fill="#495057">Direct axios (no cache)</text>
  
  <rect x="640" y="610" width="300" height="30" fill="#f8f9fa"/>
  <text x="790" y="630" font-family="Arial" font-size="14" text-anchor="middle" fill="#495057">100.00ms</text>
  
  <rect x="340" y="640" width="300" height="30" fill="#f8f9fa"/>
  <text x="490" y="660" font-family="Arial" font-size="14" text-anchor="middle" fill="#495057">Cache hit</text>
  
  <rect x="640" y="640" width="300" height="30" fill="#f8f9fa"/>
  <text x="790" y="660" font-family="Arial" font-size="14" text-anchor="middle" fill="#1971c2">0.50ms (200x faster)</text>
  
  <!-- Performance badge -->
  <rect x="1000" y="30" width="220" height="50" rx="25" fill="#37b24d"/>
  <text x="1110" y="60" font-family="Arial" font-size="20" font-weight="bold" text-anchor="middle" fill="white">⚡️ 200x FASTER</text>
</svg>
