<svg width="1280" height="720" xmlns="http://www.w3.org/2000/svg">
  <!-- Background -->
  <rect width="1280" height="720" fill="#f8f9fa"/>
  
  <!-- Left side (Without Cache) -->
  <rect x="50" y="150" width="550" height="400" rx="10" fill="#e9ecef" stroke="#dee2e6" stroke-width="2"/>
  <text x="325" y="190" font-family="Arial" font-size="24" text-anchor="middle" fill="#495057">Without Cache</text>
  
  <!-- Loading indicators on left -->
  <circle cx="150" cy="250" r="15" fill="#adb5bd">
    <animate attributeName="opacity" values="1;0.3;1" dur="1.5s" repeatCount="indefinite"/>
  </circle>
  <rect x="180" y="240" width="300" height="20" rx="5" fill="#ced4da"/>
  
  <circle cx="150" cy="300" r="15" fill="#adb5bd">
    <animate attributeName="opacity" values="1;0.3;1" dur="1.5s" repeatCount="indefinite"/>
  </circle>
  <rect x="180" y="290" width="300" height="20" rx="5" fill="#ced4da"/>
  
  <circle cx="150" cy="350" r="15" fill="#adb5bd">
    <animate attributeName="opacity" values="1;0.3;1" dur="1.5s" repeatCount="indefinite"/>
  </circle>
  <rect x="180" y="340" width="300" height="20" rx="5" fill="#ced4da"/>
  
  <text x="325" y="420" font-family="Arial" font-size="18" text-anchor="middle" fill="#6c757d">Loading time: 1200ms</text>
  <text x="325" y="450" font-family="Arial" font-size="18" text-anchor="middle" fill="#6c757d">Network requests: 15</text>
  
  <!-- Right side (With Cache) -->
  <rect x="680" y="150" width="550" height="400" rx="10" fill="#e9ecef" stroke="#4dabf7" stroke-width="3"/>
  <text x="955" y="190" font-family="Arial" font-size="24" text-anchor="middle" fill="#1971c2">With axios-cache-lite</text>
  
  <!-- Instant loading indicators on right -->
  <circle cx="780" cy="250" r="15" fill="#4dabf7"/>
  <rect x="810" y="240" width="300" height="20" rx="5" fill="#74c0fc"/>
  
  <circle cx="780" cy="300" r="15" fill="#4dabf7"/>
  <rect x="810" y="290" width="300" height="20" rx="5" fill="#74c0fc"/>
  
  <circle cx="780" cy="350" r="15" fill="#4dabf7"/>
  <rect x="810" y="340" width="300" height="20" rx="5" fill="#74c0fc"/>
  
  <text x="955" y="420" font-family="Arial" font-size="18" text-anchor="middle" fill="#1971c2">Loading time: 6ms</text>
  <text x="955" y="450" font-family="Arial" font-size="18" text-anchor="middle" fill="#1971c2">Network requests: 1</text>
  
  <!-- Lightning bolt between panels -->
  <path d="M640,300 L620,350 L650,340 L630,400 L670,320 L640,330 Z" fill="#fcc419" stroke="#f08c00" stroke-width="2"/>
  
  <!-- Title and subtitle -->
  <text x="640" y="80" font-family="Arial" font-size="48" font-weight="bold" text-anchor="middle" fill="#1864ab">axios-cache-lite</text>
  <text x="640" y="120" font-family="Arial" font-size="24" text-anchor="middle" fill="#495057">Zero-config caching for Axios in ~100 lines of code</text>
  
  <!-- Code snippet in background -->
  <rect x="200" y="500" width="880" height="160" rx="5" fill="#212529" opacity="0.9"/>
  <text x="240" y="540" font-family="monospace" font-size="16" fill="#e9ecef">import { cachedAxios } from 'axios-cache-lite';</text>
  <text x="240" y="570" font-family="monospace" font-size="16" fill="#e9ecef">// Use like regular axios, but with caching</text>
  <text x="240" y="600" font-family="monospace" font-size="16" fill="#74c0fc">const response = await cachedAxios({ url: '/api/data' });</text>
  <text x="240" y="630" font-family="monospace" font-size="16" fill="#e9ecef">// 200x faster than regular axios calls!</text>
  
  <!-- Performance badge -->
  <rect x="1000" y="30" width="220" height="50" rx="25" fill="#37b24d"/>
  <text x="1110" y="60" font-family="Arial" font-size="20" font-weight="bold" text-anchor="middle" fill="white">⚡️ 200x FASTER</text>
</svg>
